<svg id="visual" viewBox="0 0 900 600" width="900" height="600" xmlns="http://www.w3.org/2000/svg" xmlns:xlink="http://www.w3.org/1999/xlink" version="1.1"><path d="M0 259L15 254C30 249 60 239 90 232C120 225 150 221 180 234C210 247 240 277 270 284C300 291 330 275 360 267C390 259 420 259 450 242C480 225 510 191 540 162C570 133 600 109 630 103C660 97 690 109 720 128C750 147 780 173 810 199C840 225 870 251 885 264L900 277L900 0L885 0C870 0 840 0 810 0C780 0 750 0 720 0C690 0 660 0 630 0C600 0 570 0 540 0C510 0 480 0 450 0C420 0 390 0 360 0C330 0 300 0 270 0C240 0 210 0 180 0C150 0 120 0 90 0C60 0 30 0 15 0L0 0Z" fill="#585656"></path><path d="M0 373L15 369C30 365 60 357 90 353C120 349 150 349 180 367C210 385 240 421 270 427C300 433 330 409 360 400C390 391 420 397 450 391C480 385 510 367 540 350C570 333 600 317 630 318C660 319 690 337 720 354C750 371 780 387 810 404C840 421 870 439 885 448L900 457L900 275L885 262C870 249 840 223 810 197C780 171 750 145 720 126C690 107 660 95 630 101C600 107 570 131 540 160C510 189 480 223 450 240C420 257 390 257 360 265C330 273 300 289 270 282C240 275 210 245 180 232C150 219 120 223 90 230C60 237 30 247 15 252L0 257Z" fill="#403e3e"></path><path d="M0 541L15 540C30 539 60 537 90 527C120 517 150 499 180 497C210 495 240 509 270 507C300 505 330 487 360 484C390 481 420 493 450 499C480 505 510 505 540 499C570 493 600 481 630 474C660 467 690 465 720 474C750 483 780 503 810 518C840 533 870 543 885 548L900 553L900 455L885 446C870 437 840 419 810 402C780 385 750 369 720 352C690 335 660 317 630 316C600 315 570 331 540 348C510 365 480 383 450 389C420 395 390 389 360 398C330 407 300 431 270 425C240 419 210 383 180 365C150 347 120 347 90 351C60 355 30 363 15 367L0 371Z" fill="#302f2f"></path><path d="M0 601L15 601C30 601 60 601 90 601C120 601 150 601 180 601C210 601 240 601 270 601C300 601 330 601 360 601C390 601 420 601 450 601C480 601 510 601 540 601C570 601 600 601 630 601C660 601 690 601 720 601C750 601 780 601 810 601C840 601 870 601 885 601L900 601L900 551L885 546C870 541 840 531 810 516C780 501 750 481 720 472C690 463 660 465 630 472C600 479 570 491 540 497C510 503 480 503 450 497C420 491 390 479 360 482C330 485 300 503 270 505C240 507 210 493 180 495C150 497 120 515 90 525C60 535 30 537 15 538L0 539Z" fill="#272626"></path></svg>